/* XPM */
static char *_c557c61cefb4527c06d7900cb77b690N01T3PMZ2Z7jXzQf[] = {
/* columns rows colors chars-per-pixel */
"32 32 153 2 ",
"   c None",
".  c #66170B",
"X  c #6C150B",
"o  c #67180B",
"O  c #6C1A0B",
"+  c #731B0A",
"@  c #7C1D0A",
"#  c #5F270A",
"$  c #5A2D0A",
"%  c #57310A",
"&  c #523E0C",
"*  c #62250A",
"=  c #6C230D",
"-  c #7C230E",
";  c #64340D",
":  c #692F10",
">  c #6D3111",
",  c #6A3D10",
"<  c #703411",
"1  c #2B6006",
"2  c #276D08",
"3  c #444809",
"4  c #55470F",
"5  c #475507",
"6  c #415E07",
"7  c #405B0C",
"8  c #6B5113",
"9  c #72521A",
"0  c #89220A",
"q  c #87250D",
"w  c #962106",
"e  c #9D2709",
"r  c #952A0E",
"t  c #933615",
"y  c #A72103",
"u  c #AF2604",
"i  c #AF2B07",
"p  c #A32A0A",
"a  c #AB2E0B",
"s  c #BE2601",
"d  c #B72803",
"f  c #B0330E",
"g  c #B53712",
"h  c #BC3F10",
"j  c #C02A02",
"k  c #CE3809",
"l  c #CD3405",
"z  c #D33706",
"x  c #D43807",
"c  c #D83B07",
"v  c #D43A09",
"b  c #DB3B09",
"n  c #C83E12",
"m  c #F63F02",
"M  c #F83F02",
"N  c #B44012",
"B  c #B85D10",
"V  c #DF400B",
"C  c #D84811",
"Z  c #D1591C",
"A  c #EE4006",
"S  c #E3420C",
"D  c #FF4505",
"F  c #F84408",
"G  c #F6490D",
"H  c #FF4C0C",
"J  c #FF5206",
"K  c #FF5A06",
"L  c #FF530D",
"P  c #FF5B0A",
"I  c #EE4D14",
"U  c #FB4E10",
"Y  c #F54C11",
"T  c #E35011",
"R  c #EF5618",
"E  c #FF5213",
"W  c #FF5B15",
"Q  c #FF561A",
"!  c #FF5B1C",
"~  c #F45C1E",
"^  c #D9601D",
"/  c #FF6B05",
"(  c #FF660D",
")  c #FF690E",
"_  c #FF7F05",
"`  c #FF6A14",
"'  c #FF641A",
"]  c #FF6C1A",
"[  c #FF7511",
"{  c #FF7B13",
"}  c #FF781C",
"|  c #FF5E21",
" . c #D46321",
".. c #DE7026",
"X. c #E56A20",
"o. c #FE6123",
"O. c #FE6A24",
"+. c #FC7D2E",
"@. c #F87527",
"#. c #FF7A30",
"$. c #0E8F07",
"%. c #1B8408",
"&. c #168207",
"*. c #0D9809",
"=. c #159C0E",
"-. c #329A14",
";. c #24BE0D",
":. c #2DA91A",
">. c #478010",
",. c #6E8C09",
"<. c #72B019",
"1. c #739F2E",
"2. c #719425",
"3. c #58A424",
"4. c #5FB72E",
"5. c #6AB021",
"6. c #75B326",
"7. c #1BD40D",
"8. c #37CD1C",
"9. c #37D417",
"0. c #4ADC1F",
"q. c #6ECA1A",
"w. c #64D71D",
"e. c #4FC028",
"r. c #49C523",
"t. c #5DCD32",
"y. c #67D626",
"u. c #60DE24",
"i. c #6CDC29",
"p. c #78DA2D",
"a. c #75C037",
"s. c #75E838",
"d. c #9FB90D",
"f. c #8DB91D",
"g. c #BEBC14",
"h. c #88B82F",
"j. c #FF8405",
"k. c #FF820F",
"l. c #FF930D",
"z. c #FF9D0E",
"x. c #E28F17",
"c. c #FF851F",
"v. c #EF9B1B",
"b. c #FF9512",
"n. c #FF9813",
"m. c #FFA515",
"M. c #FFA718",
"N. c #F88732",
"B. c #F8A820",
"V. c #87C211",
"C. c #90E038",
"Z. c #DEC11A",
"A. c #86E141",
/* pixels */
"                                                                ",
"                                                                ",
"                                                                ",
"                                                                ",
"                                                                ",
"                                                                ",
"                                                                ",
"                                    * ; : * O                   ",
"                                  X 5 ;.4.%.$ X   X X           ",
"                                  X 6 7.t.$.% = 8 9 4 * X       ",
"                          O o O . X 6 7.t.$.% , i.A.=.3 X       ",
"                        O r g g g B ,.7.t.*.>.2.r.3.7 % O       ",
"                      O O n Q Q ] M.d.7.t.*.9.s.:.1 O O         ",
"                    . r C I E Q ' ] x.g.q.8.r.-.4 $ O           ",
"                  O @ f E W W W ! ! } M.V.u.e.%.; < > > # O     ",
"                . q S Y E { b.' ! ! ! O.v.Z.w.0.y.p.C.a.&.$     ",
"              + q a H E E k.z.' ! | | | c.B.f.<.5.6.h.1.2 #     ",
"              + S H H E E k.z.' ! ! | | | #.X.d = O = O O O     ",
"              + S H U U E ) { { } ! | | | #.X.j +               ",
"            O + S H H E U W W b.b.! | | | #.X.j +               ",
"          O a c G H H U E E Q ] ] ! | | | #.X.j +               ",
"        + @ k H H H H E P W Q Q Q ! | o.o.@.Z u +               ",
"      o e A F D H H U ) l.) Q Q Q ! o.O.+.x q + O               ",
"      O p D J K H H U ( k.[ ] W ! ! O.~  .y @ O                 ",
"    O . p D / j.L H U E E k.z.' Q ! N.c w O O                   ",
"    + i z D K / / ( L U E ` { Q O.R Z e @ O                     ",
"    0 m D D D H j.j.E U E E W Q N.C y X O                       ",
"    0 m D D D D P P H U Q @.b p t r @ O                         ",
"    0 m D D D D H L H Y R ..j @ .                               ",
"    0 m D D D H H @.T d - - @ O                                 ",
"    0 l z c v v v Z h w .                                       ",
"    O O O O + O O + O O O                                       "
};
