/* XPM */
static char *result[] = {
/* columns rows colors chars-per-pixel */
"32 32 160 2 ",
"   c #6F1303",
".  c #6C1E05",
"X  c #741606",
"o  c #7B1503",
"O  c #721B05",
"+  c #7C1A05",
"@  c #731B0D",
"#  c #7A1E0D",
"$  c #5D2503",
"%  c #562C03",
"&  c #592A03",
"*  c #513C04",
"=  c #622406",
"-  c #6B2C0A",
";  c #7D210E",
":  c #6A3509",
">  c #72330B",
",  c #79261A",
"<  c #7B2B1A",
"1  c #7E301D",
"2  c #3E5D02",
"3  c #256702",
"4  c #424602",
"5  c #544506",
"6  c #455401",
"7  c #6B500B",
"8  c #735113",
"9  c #801502",
"0  c #821A04",
"q  c #8A1C02",
"w  c #971B01",
"e  c #A81B00",
"r  c #8D2205",
"t  c #942305",
"y  c #9B2504",
"u  c #94330D",
"i  c #802D1D",
"p  c #A32402",
"a  c #A52905",
"s  c #AC2A04",
"d  c #B32301",
"f  c #BF2300",
"g  c #B6340A",
"h  c #B63908",
"j  c #823123",
"k  c #883C2D",
"l  c #C12500",
"z  c #CF3302",
"x  c #C93C0A",
"c  c #D53401",
"v  c #D53803",
"b  c #DA3902",
"n  c #E23F03",
"m  c #EE3E01",
"M  c #F63D00",
"N  c #F83D00",
"B  c #B95D07",
"V  c #8D4333",
"C  c #924C3D",
"Z  c #D94709",
"A  c #D25816",
"S  c #E84A09",
"D  c #FF4301",
"F  c #F64906",
"G  c #FF4B05",
"H  c #FF4F09",
"J  c #FF5204",
"K  c #FF5A02",
"L  c #FF510B",
"P  c #FF5B0C",
"I  c #EF5511",
"U  c #FF5513",
"Y  c #FF5B14",
"T  c #F45C18",
"R  c #FF5D1B",
"E  c #D86219",
"W  c #FF6605",
"Q  c #FF6B02",
"!  c #FF6A0B",
"~  c #FF7609",
"^  c #FF7D0A",
"/  c #E66A1A",
"(  c #FF6412",
")  c #FF6A12",
"_  c #FF611D",
"`  c #FF691A",
"'  c #FF7913",
"]  c #FB721B",
"[  c #DF7021",
"{  c #FE6A21",
"}  c #F67827",
"|  c #FE7C2B",
" . c #955143",
".. c #9C5647",
"X. c #A55D51",
"o. c #A16151",
"O. c #AA6B5B",
"+. c #AC6F60",
"@. c #AE7161",
"#. c #B37667",
"$. c #B37669",
"%. c #B57C6C",
"&. c #0A8901",
"*. c #148502",
"=. c #059302",
"-. c #099D04",
";. c #2E9B0C",
":. c #1FBF05",
">. c #29AA13",
",. c #6E8D02",
"<. c #57A51F",
"1. c #6AB11B",
"2. c #73B112",
"3. c #719520",
"4. c #74A02A",
"5. c #76B421",
"6. c #13D605",
"7. c #19D405",
"8. c #34D510",
"9. c #47C61E",
"0. c #48DD19",
"q. c #6ECB13",
"w. c #62DC1B",
"e. c #4EC123",
"r. c #5DCD2E",
"t. c #5DCF30",
"y. c #6ADA23",
"u. c #79DB29",
"i. c #76E935",
"p. c #8EBA17",
"a. c #A0BA05",
"s. c #BFBD0C",
"d. c #89B92B",
"f. c #FF8304",
"g. c #FF9405",
"h. c #FF9E06",
"j. c #FF980B",
"k. c #E99612",
"l. c #FFA60D",
"z. c #FCA916",
"x. c #F8882E",
"c. c #87E23F",
"v. c #BE8677",
"b. c #BF897A",
"n. c #C38F7F",
"m. c #C69382",
"M. c #CC9B8B",
"N. c #D3A594",
"B. c #D5A897",
"V. c #DBAF9F",
"C. c #DBB1A0",
"Z. c #E0B8A7",
"A. c #E2BBA9",
"S. c #E9C5B4",
"D. c #E9C6B4",
"F. c #EDCBBA",
"G. c #F4D5C3",
"H. c #F7D9C7",
"J. c #FADDCB",
"K. c #FCE0CE",
/* pixels */
"K.K.K.K.K.K.K.K.K.K.K.K.K.K.K.K.K.K.K.K.K.K.K.K.K.K.K.K.K.K.K.K.",
"K.K.K.K.K.K.K.K.K.K.K.K.K.K.K.K.K.K.K.K.K.K.K.K.K.K.K.K.K.K.K.K.",
"K.K.K.K.K.K.K.K.K.K.K.K.K.K.K.K.K.K.K.K.K.K.K.K.K.K.K.K.K.K.K.K.",
"K.K.K.K.K.K.K.K.K.K.K.K.K.K.K.K.K.K.K.K.K.K.K.K.K.K.K.K.K.K.K.K.",
"K.K.K.K.K.K.K.K.K.K.K.K.K.K.K.K.K.K.K.K.K.K.K.K.K.K.K.K.K.K.K.K.",
"K.K.K.K.K.K.K.K.K.K.K.K.K.K.K.K.K.K.K.K.K.K.K.K.K.K.K.K.K.K.K.K.",
"K.K.K.K.K.K.K.K.K.K.K.K.K.K.K.K.K.H.V.N.N.B.A.J.K.K.K.K.K.K.K.K.",
"K.K.K.K.K.K.K.K.K.K.K.K.K.K.K.K.K.b.- = - = < V.K.K.K.K.K.K.K.K.",
"K.K.K.K.K.K.K.K.K.K.K.K.K.K.K.K.K.X.6 :.e.3 $ ..%.#.$.v.F.K.K.K.",
"K.K.K.K.K.K.K.K.K.K.K.K.K.K.J.J.J.X.2 6.t.=.% . 7 8 5 = #.K.K.K.",
"K.K.K.K.K.K.K.K.K.K.K.K.M. .C C C , 2 6.t.=.$ - y.c.-.4 X.K.K.K.",
"K.K.K.K.K.K.K.K.K.K.K.D.k y g g h B ,.6.r.-.;.3.9.<.6 % O.K.K.K.",
"K.K.K.K.K.K.K.K.K.K.N.j X x U U ) l.a.7.y.-.8.i.>.3 # X.A.J.K.K.",
"K.K.K.K.K.K.K.K.J.A.C t Z S U U Y ] k.s.q.8.9.;.* & j M.B.A.J.K.",
"K.K.K.K.K.K.K.K.C.< + s L P P U U Y ' l.q.w.e.*.: - > > = < C.K.",
"K.K.K.K.K.K.J.B. .0 S F L ^ g.( U Y R ` k.z.w.0.y.u.c.5.&.& n.K.",
"K.K.K.K.K.K.D.< q s F H L f.h.) Y Y R R x.z.p.2.1.5.d.4.3 & m.K.",
"K.K.K.K.K.J.A.; S G H H L f.h.( U R R R _ | / f O < j < 1 V S.K.",
"K.K.K.K.K.J.B.; n G G H L ! ^ ^ ' R R R R | / f # N.D.D.D.G.J.K.",
"K.K.K.K.K.%., + n G H H L L Y g.j._ R R R | / l # A.J.K.K.K.K.K.",
"K.K.K.J.B.< s b F G G H L L P ( ) Y R R R | / l # Z.K.K.K.K.K.K.",
"K.K.K.b.# o c G D G G L P L U U Y R R R { } A d # A.K.K.K.K.K.K.",
"K.K.K.o.y m D D G G G ! g.! U U U Y R { } c r X k F.K.K.K.K.K.K.",
"K.K.K.o.p D J K G G G W f.~ ! Y Y Y { T E e o +.D.K.K.K.K.K.K.K.",
"K.F.O.< p D Q f.J G G L L f.h.( U Y x.b w @ V S.K.K.K.K.K.K.K.K.",
"J.M.o s c D K Q Q W J H L ! ^ Y { I A p 9 o.G.K.K.K.K.K.K.K.K.K.",
"K.b.q M D D D G f.f.J L H U L U | Z e @ ..A.K.K.K.K.K.K.K.K.K.K.",
"K.m.q M N D D G K K G L Y ] c a u r o C H.J.K.K.K.K.K.K.K.K.K.K.",
"J.n.q M D D D D G J H F I [ f +  .%.v.C.K.K.K.K.K.K.K.K.K.K.K.K.",
"K.n.q N D D D G G ] S d + ; + 1 C.K.K.K.K.K.K.K.K.K.K.K.K.K.K.K.",
"K.m.+ z c c c v v A h w j M.N.C.K.K.K.K.K.K.K.K.K.K.K.K.K.K.K.K.",
"K.A.i         X   X X . @.K.K.K.K.K.K.K.K.K.K.K.K.K.K.K.K.K.K.K."
};
