/* XPM */
static char *result[] = {
/* columns rows colors chars-per-pixel */
"32 32 153 2 ",
"   c #5C6278",
".  c #5B6177",
"X  c #596075",
"o  c #595F75",
"O  c #5A6075",
"+  c #63687E",
"@  c #71758C",
"#  c #757992",
"$  c #70738E",
"%  c #6D708C",
"&  c #6D718D",
"*  c #9D9DB7",
"=  c #ACAAC9",
"-  c #9A98BD",
";  c #908EB7",
":  c #908FB7",
">  c #BBB7DB",
",  c #9F9DC4",
"<  c #918FB7",
"1  c #7E7F9F",
"2  c #6C6F8B",
"3  c #6C708B",
"4  c #5F647D",
"5  c #626581",
"6  c #616580",
"7  c #606480",
"8  c #626681",
"9  c #6B6C8F",
"0  c #727199",
"q  c #716F97",
"w  c #706F96",
"e  c #706F97",
"r  c #717098",
"t  c #727198",
"y  c #616581",
"u  c #807DAA",
"i  c #8B8AB3",
"p  c #9090B7",
"a  c #8A8AB3",
"s  c #7F7DA9",
"d  c #7976A4",
"f  c #616480",
"g  c #ACB2D0",
"h  c #BEC6DF",
"j  c #BDC5DE",
"k  c #ACB2CF",
"l  c #8A89B2",
"z  c #7773A2",
"x  c #6C708C",
"c  c #636682",
"v  c #77769D",
"b  c #9999BF",
"n  c #C4CCE3",
"m  c #DAE6F5",
"M  c #D9E5F4",
"N  c #C4CBE2",
"B  c #9898BE",
"V  c #807CAB",
"C  c #676B87",
"Z  c #8684AD",
"A  c #AAAAD0",
"S  c #D1D7EB",
"D  c #E4EDF8",
"F  c #E3EDF8",
"G  c #D0D6EA",
"H  c #A9A8CE",
"J  c #9490BF",
"K  c #6A6E89",
"L  c #8E8CB5",
"P  c #B3B2D8",
"I  c #D7DCEE",
"U  c #E8F0F9",
"Y  c #D6DBED",
"T  c #B2B1D6",
"R  c #9E9AC9",
"E  c #8D8CB4",
"W  c #B3B2D7",
"Q  c #D6DBEE",
"!  c #E7EFF9",
"~  c #D5DBED",
"^  c #B1B0D6",
"/  c #9E99C9",
"(  c #6A6D89",
")  c #8D8BB4",
"_  c #B2B1D7",
"`  c #D5DAED",
"'  c #B1B0D5",
"]  c #9D99C8",
"[  c #E7F0F9",
"{  c #E9F1FA",
"}  c #D6DCEE",
"|  c #EAF2FB",
" . c #B3B1D7",
".. c #E8F1FA",
"X. c #E1E8F4",
"o. c #D3DAE9",
"O. c #C1C4DD",
"+. c #AAA8D0",
"@. c #E9F2FA",
"#. c #D2D8E9",
"$. c #A8A9C7",
"%. c #9594BB",
"&. c #9C99C5",
"*. c #A09CCB",
"=. c #D2D8EC",
"-. c #E4EEF8",
";. c #C7CDE1",
":. c #9090B5",
">. c #7F7BAA",
",. c #9591BF",
"<. c #A29ECC",
"1. c #AFAED5",
"2. c #CAD1E9",
"3. c #D8E4F3",
"4. c #D9E4F3",
"5. c #BFC6DE",
"6. c #8E8EB5",
"7. c #807CAA",
"8. c #A29DCB",
"9. c #8F8EB6",
"0. c #70748F",
"q. c #9A98BE",
"w. c #6F738D",
"e. c #D7DCEF",
"r. c #EBF3FB",
"t. c #D8DDEF",
"y. c #767A93",
"u. c #ADABCA",
"i. c #757991",
"p. c #696D89",
"a. c #B4B2D8",
"s. c #71768D",
"d. c #9E9EB8",
"f. c #A7A5CD",
"g. c #C6C9E3",
"h. c #C8CBE4",
"j. c #ADABD2",
"k. c #63687F",
"l. c #62687E",
"z. c #646884",
"x. c #78779F",
"c. c #8F8CB8",
"v. c #A6A4CC",
"b. c #B2B0D6",
"n. c #A4A1CD",
"m. c #9F9BCA",
"M. c #5A6176",
"N. c #626682",
"B. c #827FAD",
"V. c #9591C0",
"C. c #9F9AC9",
"Z. c #A09CCA",
"A. c white",
/* pixels */
"  . X o O O O O O O O O O O O O O O O O O O O O O O O O o X .   ",
". + @ # $ % % & & & & & & & & & & & & & & & & & & % % $ # @ + . ",
"X @ * = - ; ; : : : : : : : : : : : : : : : : : : ; ; - = * @ X ",
"o # = > , ; ; < < < < < < < < < < < < < < < < < < ; ; , > = # o ",
"O $ - , 1 2 3 % % % % % % % % % % % % % % % % % % 3 2 1 , - $ O ",
"O % ; ; 2 . 4 5 6 7 7 7 7 6 6 8 8 6 6 7 7 7 7 6 5 4 . 2 ; ; % O ",
"O % ; ; 3 4 9 0 q w w w w e r t t r e w w w w q 0 9 4 3 ; ; % O ",
"O & : < % y r u i p p p p a s d d s a p p p p i u r y % < : & O ",
"O & : < % f e a g h j j h k l z z l k h j j h g a e f % < : & O ",
"O & : < x c v b n m M M m N B V V B N m M M m n b v c x < : & O ",
"O & : : 3 C Z A S D F F D G H J J H G D F F D S A Z C 3 : : & O ",
"O & : ; 2 K L P I U U U U Y T R R T Y U U U U I P L K 2 ; : & O ",
"O & : ; 2 K E W Q U ! ! U ~ ^ / / ^ ~ U ! ! U Q W E K 2 ; : & O ",
"O & : : 2 ( ) _ Q U ! ! U ` ' ] ] ' ` U ! ! U Q _ ) ( 2 : : & O ",
"O & : : 2 ( ) _ Q U ! ! U ` ' ] ] ' ` U ! ! U Q _ ) ( 2 : : & O ",
"O & : : 2 ( ) _ Q U ! ! U ` ' ] ] ' ` U ! ! U Q _ ) ( 2 : : & O ",
"O & : : 2 ( ) _ Q U ! ! U ` ' ] ] ' ` U ! ! U Q _ ) ( 2 : : & O ",
"O & : : 2 ( ) _ Q U ! [ { } ' ] ] ' } { [ ! U Q _ ) ( 2 : : & O ",
"O & : : 2 ( ) _ Q U ! U | I T ] ] T I | U ! U Q _ ) ( 2 : : & O ",
"O & : : 2 ( )  .Q ..U X.o.O.+.R R +.O.o.X.U ..Q  .) ( 2 : : & O ",
"O & : : 2 ( )  .Q @.@.#.$.%.&.*.*.&.%.$.#.@.@.Q  .) ( 2 : : & O ",
"O & : : 2 ( ) ^ =.D -.;.:.>.,.<.<.,.>.:.;.-.D =.^ ) ( 2 : : & O ",
"O & : : 2 K E 1.2.3.4.5.6.7.,.8.8.,.7.6.5.4.3.2.1.E K 2 : : & O ",
"O & : : 2 K E 1.2.3.4.5.6.7.,.8.8.,.7.6.5.4.3.2.1.E K 2 : : & O ",
"O & : : 2 ( ) ^ =.D -.;.:.>.,.<.<.,.>.:.;.-.D =.^ ) ( 2 : : & O ",
"O % ; ; 2 ( )  .Q @.@.#.$.%.&.*.*.&.%.$.#.@.@.Q  .) ( 2 ; ; % O ",
"O % ; 9.2 ( )  .Q ..U X.o.O.+.R R +.O.o.X.U ..Q  .) ( 2 9.; % O ",
"O 0.q.q.w.( ) P e.{ U { r.t.T ] ] T t.r.{ U { e.P ) ( w.q.q.0.O ",
"o y.u.u.i.p.) a.t.@.{ @.r.t.T ] ] T t.r.@.{ @.t.a.) p.i.u.u.y.o ",
"X s.d.d.@ C Z f.g.Y ` ` Y h.j.R R j.h.Y ` ` Y g.f.Z C @ d.d.s.X ",
". k.@ @ l.z.x.c.v.b.' ' ' j.n.m.m.n.j.' ' ' b.v.c.x.z.l.@ @ k.. ",
"  . X o M.N.r B.V.C.R / / R m.Z.Z.m.R / / R C.V.B.r N.M.o X .   "
};
