/* XPM */
static char *_3077fdc312a401dc07e8b44ad42fb45wZV3wNDt9uJFKInn[] = {
/* columns rows colors chars-per-pixel */
"60 60 86 1 ",
"  c None",
". c #FC7E18",
"X c #FB791C",
"o c #FD7C1E",
"O c #F85E34",
"+ c #F7553C",
"@ c #F85A38",
"# c #F9672C",
"$ c #FA6C28",
"% c #FB7520",
"& c #FA7024",
"* c #FF7C27",
"= c #FF782C",
"- c #F96330",
"; c #FD673D",
": c #FF6D3B",
"> c #FF7136",
", c #F75140",
"< c #F85241",
"1 c #F85342",
"2 c #F95443",
"3 c #F95544",
"4 c #FA5645",
"5 c #FA5746",
"6 c #FB5847",
"7 c #FB5848",
"8 c #FC5949",
"9 c #FC5A4A",
"0 c #FD5B4B",
"q c #FD5C4C",
"w c #FD5D4D",
"e c #FE5D4D",
"r c #FD5E4D",
"t c #FE5D4F",
"y c #FC5E4E",
"u c #FD5E4E",
"i c #FE5E4E",
"p c #FF5F4F",
"a c #FD6342",
"s c #FF6645",
"d c #FF6940",
"f c #FD8B0C",
"g c #FF8E0E",
"h c #FE9303",
"j c #FC9700",
"k c #FD9700",
"l c #FE9404",
"z c #FE9800",
"x c #FF9900",
"c c #FF9C02",
"v c #FE9008",
"b c #FF9109",
"n c #FD8710",
"m c #FC8214",
"M c #FD8415",
"N c #FF8A13",
"B c #FF8618",
"V c #FFA004",
"C c #FFA306",
"Z c #FFA708",
"A c #FFAB0A",
"S c #FFAE0D",
"D c #FFB20F",
"F c #FFB611",
"G c #FFB913",
"H c #FFCC00",
"J c #FFCC02",
"K c #FFCC04",
"L c #FFCD06",
"P c #FFCD08",
"I c #FFCE0A",
"U c #FFCE0D",
"Y c #FFCF0F",
"T c #FFCF11",
"R c #FFCF13",
"E c #FFC018",
"W c #FFC41A",
"Q c #FFC81C",
"! c #FFCB1E",
"~ c #FFD015",
"^ c #FFD11A",
"/ c #FFD11C",
"( c #FFD21E",
") c #FFCF20",
"_ c #FFD220",
"` c #FFD323",
/* pixels */
"                                                            ",
"                         sttppppttt                         ",
"                       ypttq0qwqttppt                       ",
"                     tttt7<,,,,,,17spt                      ",
"                     pt7,,,,,,,,,,,1wpt                     ",
"                    pp7,,,,,,,,,,,,,,wpw                    ",
"                  wspq,,,,,,,,,,,,,,,1wptt                  ",
"             wwwppppt<,,,,,,,,,,,,,,,,3tppppppw             ",
"           wtpw97722,,,,,,,,,,,,,,,,,,,<3339qppsp           ",
"        zzb=w3<<,,,,,,,,,,,,,,,,,,,,,,,,<,<,,,7sBzz         ",
"         zzzm+,+,,,,,,,,,,,,,,,,,,,,,,,,,,,,,,#lczl         ",
"        tbzczlO<,,,,,,,,,,,,,,,,,,,,,,,,,,,,,Xzzzz>         ",
"        pdzzzzz$,,,,,,,,,,,,,,,,,,,,,,,,,,,+fczczMww        ",
"       pp,&zzczz%,,,,,,,,,,+,,,,+<,,,,,+,,Ofzzzzb+wtp       ",
"       p9,,mzczcz.+#mbzzzzzN&-#.bzzzkkN&@-lzczzz-,<tw       ",
"      ww3,,,fzzzzzlzzczzzzzzzzzzzczzzzczlzzzzzz#,,,wp       ",
"      wp<,,,+lczzczzczzzzzczzzzzzzczczzzczczzz%,,,,7p       ",
"      pp,,,,<#zzzzczzzzczczzzczczczzzzzczzzzzf<+,,,7p       ",
"      pp,,,,+,&zzzzzczczzzzzczzzzzzzczczzzczv+,,,,,7p       ",
"      pw,,,,,,$zczczzzzzzczczzzczczczzzzzczzv,,,,,,7ps      ",
"     wp0,,,,,,fzzzzczzczzzCDGDGDAzzzzzzzczzzc#,,,,,,tpt     ",
"    tww<,,,,,+zzczzzczzzZQ````````Gcczczzzzcz.,,,,,,3wpy    ",
"   pt7,,,,,,,-zzzczczczG```~Y~~Y/``!Czzcczczzf+,,,,,,,tpt   ",
"  wp0,,,,,,,,#czzzzzzzD`(YHHHHHHHH^`!czzzzzzzc,,,,,,,,,tp   ",
" ppt,,,,,,,,,-zczzzzzZ``IHHHHHHHHHH^`Wzzczczcz,,,,,,,,,3sp  ",
" wp<,,,,,,,,,-zzzczcz!`UHHHHHHHHHHHH/`Szzzzzzz,,,,,,,,,,wp  ",
" pt,,,,,,,,,,OzzczzzS`/JHHHHHHHHHHHHU`)zzzczzl,,,,,,,,,,3pw ",
"sp7,,,,,,,,,,,zzzzzzE`IJHHHHHHHHHHHHH/`CzczzzM,,,,,,,,,,,pp ",
"tp3,,,,,,,,,,,Nzczcz``JJHHHHHHHHHHHHH~`Gzzzzz&<,,,,,,,,,,ww ",
"yp<,,,,,,,,,,+.zzzzz``JJHHHHHHHHHHHHHY`DzczczO,,,,,,,,,,,0t ",
"tt3<,,,,,,,,,,.zzzcz``HHHHHHHHHHHHHHH~`Gczzzz@,,,,,,,,,,,wp ",
"wt<,,,,,,,,,,,vczczz``KHHHHHHHHHHHHHH~`Dzzzcz#,,,,,,,,,,,wp ",
" p9,,,,,,,,,,@kzczzzW`IJJJJJHHHHHHHHJ^`Zzzzzz.+,,,,,,,,,,pp ",
" pw,,,,,,,,,,#zzzzzcD`^JJJJJHHHHHHHHI`)zzzczcf,,,,,,,,,,3ww ",
" pw<,,,,,,,,<%zzczczV/`IJJJJHHHHHHHH/`Gczzzzzz,,,,,,,,,,tps ",
" wtw,,,,,,,,,%zzzzzzzG``KJJJHHHHHHH~`/czczczzz,,,,,,,,,3tp  ",
"  pp6,,,,,,,,%zzczzzczQ``UHHHHHHHH^``Azzzzzzzz<,,,,,,,,wtt  ",
"   pw3,,,,,,,#zczzzczzcE``^~KIII~```Azczczczzf,,,,,,,,wpt   ",
"   wpp9+,,,,,@zzczczzzczS`````````Wczzzzzzzczm,,,,<<<wpp    ",
"     pw0,,,,,+vczzzzzczzzzDGWWWWGCzzzzczczzzz$,,,,,<www     ",
"      pp,,,,,,&zczzzzzczzzzzzzzzzczczczczzzck+<<,,,3pt      ",
"      pp,,,,,,&zzzzczczzzczczczczzzzzzzzczzzf+,,,,,6p       ",
"      pp,,,,,Olzczzzzzzzczzzczzzzczzzczzzczcz.,,,,<3p       ",
"      wp<,,,+bzzzzzzzczczzzczzzzzzczzzczzzzzzz&,,,,0p       ",
"      wp3,,+Nzzzzzckzczzczczkzzzzczzzzzzzzzzzzc#,,,wp       ",
"       p0,,.zzczzf+%bzzzzzzzm%.nbzczzzbX@&czzzzvO,<tp       ",
"       tw<#czczz.+,,,O-----<,,,,,,+,,,,,<,-vczzzf+0pp       ",
"       ttalzzzl#,,,,,,,,,,,+,,,,,,,,,,,,,,+@.zzcz*wp        ",
"        tNzzzl@,,,,,,,,,,,,,,,,,,,,,,,,,,,,,,Xzzzz:p        ",
"         zzcN+,,,,,,,,,,,,,,,,,,,,,,,,,,,,,,,,&vzzg         ",
"        kzz=w3,,,,,,,,,,,,,,,,,,,,,,,,,,,,<<,+7dbzz         ",
"        zz sws93222,,,,,,,,,,,,,,,,,,,,,<3<<9yttt z         ",
"            wpppppppq,,,,,,,,,,,,,,,,,<wppptppp             ",
"               twwwwt0,,,,,,,,,,,,,,,,ttswttw               ",
"                    pt3,,,,,,,,,,,,,,wpw                    ",
"                     tt8,,,,,,,,,,,<wpw                     ",
"                      ppw3,,,,,,,,3wpy                      ",
"                       pppw67q770wppw                       ",
"                        tpspppppppp                         ",
"                                                            "
};
