/* XPM */
static char *_1b2065c099548f9e3ca4b4384bd8cdaAMbwnpW0Lhh9HP4u[] = {
/* columns rows colors chars-per-pixel */
"41 41 37 1 ",
"  c None",
". c #F7583C",
"X c #F9772C",
"o c #FA7F28",
"O c #F96F30",
"+ c #F86834",
"@ c #F86038",
"# c #F75140",
"$ c #F85241",
"% c #F85342",
"& c #F95443",
"* c #F95544",
"= c #FA5645",
"- c #FA5746",
"; c #FB5847",
": c #FB5848",
"> c #FC5949",
", c #FC5A4A",
"< c #FD5B4B",
"1 c #FD5C4C",
"2 c #FD5D4D",
"3 c #FE5D4D",
"4 c #FD5E4D",
"5 c #FE5D4F",
"6 c #FC5E4E",
"7 c #FD5E4E",
"8 c #FE5E4E",
"9 c #FF5F4F",
"0 c #FB961C",
"q c #FC9D18",
"w c #FDB40C",
"e c #FEBC08",
"r c #FCA514",
"t c #FDAD10",
"y c #FB8E20",
"u c #FEC404",
"i c #FFCC00",
/* pixels */
"                44999999                 ",
"              999999999999               ",
"             499:=#####=4994             ",
"         499994$#########:99994          ",
"       49994<:$###########=><4999        ",
"      449>$###################=499       ",
"     494$#####################$#:94      ",
"     99=#########################:99     ",
"    99=###########################<99    ",
"   99<############################$99    ",
"   49&#############################>9    ",
"   99##############################=94   ",
"   9<##############################&94   ",
"  44:############+yyyyo.############99   ",
"  94###########.riiiiiiuX###########:94  ",
" 99=###########riiiiiiiii+###########<9  ",
" 9<###########yiiiiiiiiiiu.##########=94 ",
"49=##########.uiiiiiiiiiiiy###########49 ",
"99###########oiiiiiiiiiiiie###########:9 ",
"99###########yiiiiiiiiiiiii###########:9 ",
"99###########yiiiiiiiiiiiii###########:9 ",
"49###########oiiiiiiiiiiiie$##########:9 ",
"49=##########.iiiiiiiiiiii0.##########<9 ",
" 9>###########qiiiiiiiiiii.##########$94 ",
" 99&##########.wiiiiiiiiio###########:99 ",
" 994###########.qiiiiiiuO###########&99  ",
"  49:############Xrttty.############49   ",
"   9<###############.%#############=94   ",
"   94##############################:9    ",
"   49$#############################:9    ",
"   99>#############################94    ",
"    99&###########################<99    ",
"    494##########################=94     ",
"     994$#######################:99      ",
"      994:####################&494       ",
"       499<>:=$############=:<999        ",
"         49999<=#########:49999          ",
"             499:######$<999             ",
"              4999<<<<4994               ",
"                99999999                 ",
"                                         "
};
