/* XPM */
static char *result[] = {
/* columns rows colors chars-per-pixel */
"32 32 117 2 ",
"   c #FC7F17",
".  c #FC7E18",
"X  c #F85B37",
"o  c #F85D35",
"O  c #F85E34",
"+  c #F85E35",
"@  c #F7563B",
"#  c #F7523E",
"$  c #F7533E",
"%  c #F7543D",
"&  c #F7553D",
"*  c #F7563C",
"=  c #F8573A",
"-  c #F8563B",
";  c #F8573B",
":  c #F85839",
">  c #F85939",
",  c #F85A38",
"<  c #F8583A",
"1  c #FA6F25",
"2  c #FA6D27",
"3  c #FA6E26",
"4  c #F9672C",
"5  c #F9662D",
"6  c #F9652E",
"7  c #FA682B",
"8  c #FB6E2A",
"9  c #FB7222",
"0  c #FB7322",
"q  c #FB7223",
"w  c #FA7024",
"e  c #FB7125",
"r  c #FB7026",
"t  c #FB7126",
"y  c #F96132",
"u  c #F75040",
"i  c #F75140",
"p  c #F75041",
"a  c #F85241",
"s  c #F85242",
"d  c #F85342",
"f  c #F85343",
"g  c #F85443",
"h  c #F95443",
"j  c #F95544",
"k  c #FA5645",
"l  c #FA5646",
"z  c #FA5746",
"x  c #FB5747",
"c  c #FC5A49",
"v  c #FC5A4A",
"b  c #FC5B4A",
"n  c #FC5B4B",
"m  c #FD5B4B",
"M  c #FD5E49",
"N  c #FE5F49",
"B  c #FD5C4B",
"V  c #FD5C4C",
"C  c #FD5D4C",
"Z  c #FD5C4D",
"A  c #FE5D4C",
"S  c #FE5E4E",
"D  c #FE6047",
"F  c #FE6048",
"G  c #FD8C0B",
"H  c #FE8D0A",
"J  c #FE8D0B",
"K  c #FD8A0E",
"L  c #FD8C0C",
"P  c #FF9702",
"I  c #FF9603",
"U  c #FE9305",
"Y  c #FE9107",
"T  c #FE9206",
"R  c #FE9404",
"E  c #FF9800",
"W  c #FF9900",
"Q  c #FF9801",
"!  c #FF9A00",
"~  c #FF9A01",
"^  c #FF9B01",
"/  c #FF9E03",
"(  c #FE9008",
")  c #FC8313",
"_  c #FD8313",
"`  c #FD8710",
"'  c #FC8413",
"]  c #FC8115",
"[  c #FC8214",
"{  c #FC8314",
"}  c #FC8016",
"|  c #FFA809",
" . c #FFA90A",
".. c #FFAA0A",
"X. c #FFB712",
"o. c #FFB813",
"O. c #FFB913",
"+. c #FFBA13",
"@. c #FFBB14",
"#. c #FFBC14",
"$. c #FFBC15",
"%. c #FFCC00",
"&. c #FFCD02",
"*. c #FFCD03",
"=. c #FFCE08",
"-. c #FFCF08",
";. c #FFCF0A",
":. c #FFCF0C",
">. c #FFCF0D",
",. c #FFCF0E",
"<. c #FFC015",
"1. c #FFCD17",
"2. c #FFCE17",
"3. c #FFCD18",
"4. c #FFD013",
"5. c #FFD014",
"6. c None",
/* pixels */
"6.6.6.6.6.6.6.6.6.6.6.6.6.S V M M V S 6.6.6.6.6.6.6.6.6.6.6.6.6.",
"6.6.6.6.6.6.6.6.6.6.6.6.V x f 8 8 f x V 6.6.6.6.6.6.6.6.6.6.6.6.",
"6.6.6.6.6.6.6.6.6.6.6.B g i $ ) ) $ i g B 6.6.6.6.6.6.6.6.6.6.6.",
"6.6.6.6.6.6.6.S A V B j i i = H H = i i j B V A S 6.6.6.6.6.6.6.",
"6.6.6.6.6.S m z h g a i i p O T T O p i i a g h z m S 6.6.6.6.6.",
"6.6.6.6.6.v s i i i i i i p 6 I I 6 p i i i i i i s v 6.6.6.6.6.",
"6.6.6.6.m d i i i i i u - 1 K W W K 1 - u i i i i i d m 6.6.6.6.",
"6.6.6.S z i i i i i p , [ Q ! W W ! Q [ , p i i i i i z S 6.6.6.",
"6.6.6.V h i i i i i & ] ! W W W W W W ! ] & i i i i i h V 6.6.6.",
"6.6.6.V d i i i i p 3 P W E E W W E E W P 3 p i i i i d V 6.6.6.",
"6.6.6.m a i i u % 2 Y W ^ | X.$.$.X.| ^ W Y 2 % u i i a m 6.6.6.",
"6.6.V j i i u : . P W / @.1.,.;.;.,.1.@./ W P . : u i i h m 6.6.",
"6.C h i i i @ } W W ~ O.5.&.%.%.%.%.&.5.O.~ W W } @ i i i h C 6.",
"S x i i p p w Q W E | 3.*.%.%.%.%.%.%.*.3.| E W Q w p p i i x S ",
"Z f # ; o 4 L ! W W O.,.%.%.%.%.%.%.%.%.,.O.W W ! L 4 o ; # f Z ",
"D t { J Y P W W W ~ <.-.%.%.%.%.%.%.%.%.-.<.~ W W W P Y J { t D ",
"F e ` ( R Q W W W ~ <.-.%.%.%.%.%.%.%.%.-.<.~ W W W Q R ( ` e F ",
"Z f % , y 7 G ! W W o.>.%.%.%.%.%.%.%.%.>.o.W W ! G 7 y , % f Z ",
"S z i i p p 9 W W E  .2.&.%.%.%.%.%.%.&.2. .E W W 9 p p i i z S ",
"6.V g i i i < ' ! W ^ #.4.&.%.%.%.%.&.4.#.^ W ! ' < i i i g V 6.",
"6.6.n h i i p X ] Q W / @.2.:.=.=.:.2.@./ W Q ] X p i i f m 6.6.",
"6.6.6.n a i i p * 9 U W ^ ..+.<.<.+...^ W U 9 * p i i a n 6.6.6.",
"6.6.6.V d i i i i i q Q W E W ^ ^ W E W Q q i i i i i d V 6.6.6.",
"6.6.6.V h i i i i i &   ! W W W W W W !   & i i i i i h V 6.6.6.",
"6.6.6.S l i i i i i p > [ W ! W W ! W [ > p i i i i i l S 6.6.6.",
"6.6.6.6.n a i i i i i p ; 0 J W W J 0 ; p i i i i i a n 6.6.6.6.",
"6.6.6.6.S c d i i i i i i p 5 I I 5 p i i i i i i d c S 6.6.6.6.",
"6.6.6.6.6.6.n k f d a i i p + T T + p i i a d f k n 6.6.6.6.6.6.",
"6.6.6.6.6.6.6.S V V n g i i = H H = i i f b V V S 6.6.6.6.6.6.6.",
"6.6.6.6.6.6.6.6.6.6.6.n h i $ _ _ $ i h m 6.6.6.6.6.6.6.6.6.6.6.",
"6.6.6.6.6.6.6.6.6.6.6.6.V z s r r s z V 6.6.6.6.6.6.6.6.6.6.6.6.",
"6.6.6.6.6.6.6.6.6.6.6.6.6.S V N N V S 6.6.6.6.6.6.6.6.6.6.6.6.6."
};
