/* XPM */
static char *result[] = {
/* columns rows colors chars-per-pixel */
"32 32 197 2 ",
"   c #FC7F17",
".  c #FB771E",
"X  c #FB761F",
"o  c #FC7B1A",
"O  c #FC7B1B",
"+  c #FC7E18",
"@  c #FC7F18",
"#  c #FC7C1A",
"$  c #FB781D",
"%  c #FB791D",
"&  c #FB781E",
"*  c #FD7E1E",
"=  c #F85B37",
"-  c #F85F34",
";  c #F85C36",
":  c #F7533E",
">  c #F7523F",
",  c #F7533F",
"<  c #F7553C",
"1  c #F85A39",
"2  c #F85B39",
"3  c #F95C3B",
"4  c #F95A3C",
"5  c #FA6D27",
"6  c #FA6E26",
"7  c #F9632F",
"8  c #F9672C",
"9  c #F9672D",
"0  c #FA6B28",
"q  c #FA6A29",
"w  c #FA6B29",
"e  c #F9682B",
"r  c #FA692B",
"t  c #FA6A2A",
"y  c #FA6C28",
"u  c #FB7123",
"i  c #FB7222",
"p  c #FB7322",
"a  c #FB7223",
"s  c #FB7520",
"d  c #FB7421",
"f  c #FA7024",
"g  c #FA7025",
"h  c #FE7E20",
"j  c #FE7C23",
"k  c #F96231",
"l  c #F96032",
"z  c #F96132",
"x  c #F96033",
"c  c #F96232",
"v  c #FA6332",
"b  c #FA6333",
"n  c #F96430",
"m  c #F75040",
"M  c #F75140",
"N  c #F75041",
"B  c #F75141",
"V  c #F75241",
"C  c #F85241",
"Z  c #F85342",
"A  c #F85343",
"S  c #F95444",
"D  c #F95544",
"F  c #F95545",
"G  c #FA5645",
"H  c #FA5646",
"J  c #FA5746",
"K  c #FB5747",
"L  c #FB5847",
"P  c #FB5848",
"I  c #FB5948",
"U  c #FB5949",
"Y  c #FC5949",
"T  c #FC5A49",
"R  c #FC5A4A",
"E  c #FC5B4A",
"W  c #FC5A4B",
"Q  c #FD5B4B",
"!  c #FD5C4B",
"~  c #FD5B4C",
"^  c #FD5B4D",
"/  c #FD5C4C",
"(  c #FD5D4C",
")  c #FD5C4D",
"_  c #FE5D4D",
"`  c #FE5E4D",
"'  c #FD5E4E",
"]  c #FE5E4E",
"[  c #FF5E4E",
"{  c #FF5E4F",
"}  c #FE5F4F",
"|  c #FF5F4F",
" . c #FE6543",
".. c #FE6743",
"X. c #FE6345",
"o. c #FE6545",
"O. c #FE6149",
"+. c #FE604A",
"@. c #FE604C",
"#. c #FE8F08",
"$. c #FE8F09",
"%. c #FE8D0A",
"&. c #FE8C0B",
"*. c #FE8E0A",
"=. c #FD880F",
"-. c #FD8E0D",
";. c #FF9701",
":. c #FE9503",
">. c #FF9503",
",. c #FF9702",
"<. c #FF9603",
"1. c #FE9007",
"2. c #FE9107",
"3. c #FE9306",
"4. c #FE9404",
"5. c #FE9504",
"6. c #FE9405",
"7. c #FF9505",
"8. c #FF9604",
"9. c #FF9406",
"0. c #FF9506",
"q. c #FF9800",
"w. c #FF9900",
"e. c #FF9801",
"r. c #FF9A00",
"t. c #FF9A01",
"y. c #FF9B01",
"u. c #FF9C02",
"i. c #FF9D02",
"p. c #FF9D03",
"a. c #FF9E03",
"s. c #FF9F03",
"d. c #FF9F04",
"f. c #FE9008",
"g. c #FE9108",
"h. c #FD8710",
"j. c #FD8512",
"k. c #FD8413",
"l. c #FE8714",
"z. c #FE8716",
"x. c #FE8912",
"c. c #FE8913",
"v. c #FE8A12",
"b. c #FD801C",
"n. c #FFA005",
"m. c #FFA205",
"M. c #FFA206",
"N. c #FFA306",
"B. c #FFA406",
"V. c #FFA407",
"C. c #FFA507",
"Z. c #FFA508",
"A. c #FFA608",
"S. c #FFA708",
"D. c #FFA80A",
"F. c #FFAC0C",
"G. c #FFAD0D",
"H. c #FFB10F",
"J. c #FFB511",
"K. c #FFB611",
"L. c #FFB913",
"P. c #FFBC15",
"I. c #FFBD15",
"U. c #FFBF17",
"Y. c #FFCC00",
"T. c #FFCC01",
"R. c #FFCD03",
"E. c #FFCD04",
"W. c #FFCD05",
"Q. c #FFCD06",
"!. c #FFCE06",
"~. c #FFCE08",
"^. c #FFCE0A",
"/. c #FFCF0B",
"(. c #FFCF0C",
"). c #FFC118",
"_. c #FFC218",
"`. c #FFC51A",
"'. c #FFC61A",
"]. c #FFC71A",
"[. c #FFC91A",
"{. c #FFCB1A",
"}. c #FFCA1B",
"|. c #FFCE19",
" X c #FFCC1B",
".X c #FFCD1B",
"XX c #FFCA1C",
"oX c #FFD012",
"OX c #FFD013",
"+X c #FFD014",
"@X c #FFD114",
"#X c #FFD018",
"$X c #FFD118",
"%X c #FFD019",
"&X c #FFD119",
"*X c #FFD11A",
"=X c None",
/* pixels */
"=X=X=X=X=X=X=X=X=X=X=X=X=X=X[ ] ] { =X=X=X=X=X=X=X=X=X=X=X=X=X=X",
"=X=X=X=X=X=X=X=X=X=X=X=X] Q P L L Y / ] =X=X=X=X=X=X=X=X=X=X=X=X",
"=X=X=X=X=X=X=X=X=X=X=X] L C M M M M Z Y ] =X=X=X=X=X=X=X=X=X=X=X",
"=X=X=X=X=X=X=X=X] ] ] P M M M M M M M V R ] ] =X=X=X=X=X=X=X=X=X",
"=X=X=X=X=X=X+.~ I L G V M M M M M M M M Z H L Y ^ o.=X=X=X=X=X=X",
"=X=X=X=X-.0.* 2 N M M M M M M M M M M M M M M M b z.7.=X=X=X=X=X",
"=X=X=X=X .x.r.=.z M N N N N N N N N N N N N > w f.w.h +.=X=X=X=X",
"=X=X=X=XR n 2.r.%.e 7 p . . u 7 9 d . . g x a 4.r.h.3 ) =X=X=X=X",
"=X=X=X] H M y :.r.5.4.w.r.r.w.4.>.w.r.r.e.3.,.r.*.l N T =X=X=X=X",
"=X=X=X| F m : & e.w.w.w.w.w.w.w.w.w.w.w.w.w.w.4.t m M P ] =X=X=X",
"=X=X=X] D M N r <.w.w.w.w.t.n.V.B.s.w.w.w.w.w.1.= N M K } =X=X=X",
"=X=X] P V M M % r.w.w.w.N.P.[.{.{.].J.a.w.w.w.,.w N M Z T ' =X=X",
"=X] P M M M , @ r.w.w.m.'.@X~.W.W.^.#XP.u.w.w.r.X N M M V T ] =X",
"=XQ C M M M , + r.w.y.I.+XT.Y.Y.Y.Y.E.%XH.w.w.r.. N M M M A _ =X",
"] J M M M M M $ r.q.Z. XQ.Y.Y.Y.Y.Y.Y.(.`.i.w.e.f N M M M M T ] ",
"_ D M M M M N 6 e.q.G.*XT.Y.Y.Y.Y.Y.Y.!.{.N.w.4.k N M M M M P ] ",
"_ D M M M M N g e.q.F.&XT.Y.Y.Y.Y.Y.Y.!.{.N.w.6.z N M M M M P ] ",
"] J M M M M > # r.q.A..XW.Y.Y.Y.Y.Y.Y./.'.p.w.;.5 N M M M M T } ",
"] E V M M M < j.r.w.u.).oXT.Y.Y.Y.Y.R.&XK.w.w.r.X N M M M A ( =X",
"=X] J M M M < k.r.w.q.S.XXOXQ.R.R.~.$X_.d.w.w.r.X N M M V T ] =X",
"=X=X` K M M M O r.w.w.w.C.U. X|.|.}.L.d.w.w.w.,.y N M C U ] =X=X",
"=X=X=X] S M N t ,.w.w.w.q.y.Z.D.D.M.r.w.w.w.w.2.; N M J ] =X=X=X",
"=X=X=X| F M > s e.w.w.w.w.w.q.q.q.w.w.w.w.w.w.6.8 m M P ] =X=X=X",
"=X=X=X] H M q 6.r.<.<.r.r.r.r.,.;.r.r.r.w.4.e.r.&.- B T =X=X=X=X",
"=X=X=X=XW c #.r.$.y e o @   % 0 5 s . . i k X 5.r.j.4 ) =X=X=X=X",
"=X=X=X=XX.l.r.h.l M N > : : M N N N N N N N : t $.w.j @.=X=X=X=X",
"=X=X=X=Xv.8.b.1 m M M M M M M M M M M M M M M M v c.9.=X=X=X=X=X",
"=X=X=X=X=Xz.O.W J H D B M M M M M M M M C D H L ~ ..g.=X=X=X=X=X",
"=X=X=X=X=X=X=X=X] ] ] L M M M M M M M V Y ] ] ] =X=X=X=X=X=X=X=X",
"=X=X=X=X=X=X=X=X=X=X=X] L C M M M M Z U ] =X=X=X=X=X=X=X=X=X=X=X",
"=X=X=X=X=X=X=X=X=X=X=X=X] Q K G G L ! ' =X=X=X=X=X=X=X=X=X=X=X=X",
"=X=X=X=X=X=X=X=X=X=X=X=X=X=X] _ ` ] =X=X=X=X=X=X=X=X=X=X=X=X=X=X"
};
