/* XPM */
static char *d6e1d44941a7494ff3de3fbfcbe020bfMnYFQ0TUkwxREERL[] = {
/* columns rows colors chars-per-pixel */
"74 74 70 1 ",
"  c None",
". c #FC7E18",
"X c #FB791C",
"o c #F85E34",
"O c #F7553C",
"+ c #F85A38",
"@ c #F9672C",
"# c #FA6C28",
"$ c #FB6B2F",
"% c #FB7520",
"& c #FA7024",
"* c #F96330",
"= c #F75140",
"- c #F85241",
"; c #F85342",
": c #F95443",
"> c #F95544",
", c #FA5645",
"< c #FA5746",
"1 c #FB5847",
"2 c #FB5848",
"3 c #FC5949",
"4 c #FC5A4A",
"5 c #FD5B4B",
"6 c #FD5C4C",
"7 c #FD5D4D",
"8 c #FE5D4D",
"9 c #FD5E4D",
"0 c #FE5D4F",
"q c #FC5E4E",
"w c #FD5E4E",
"e c #FE5E4E",
"r c #FF5F4F",
"t c #FF624A",
"y c #FD8B0C",
"u c #FE9404",
"i c #FF9900",
"p c #FF9C02",
"a c #FE9008",
"s c #FD8710",
"d c #FC8214",
"f c #FFA004",
"g c #FFA306",
"h c #FFA708",
"j c #FFAB0A",
"k c #FFAE0D",
"l c #FFB611",
"z c #FFB913",
"x c #FFBD15",
"c c #FFCC00",
"v c #FFCC02",
"b c #FFCC04",
"n c #FFCD06",
"m c #FFCD08",
"M c #FFCE0A",
"N c #FFCE0D",
"B c #FFCF0F",
"V c #FFCF11",
"C c #FFCF13",
"Z c #FFC018",
"A c #FFC41A",
"S c #FFC81C",
"D c #FFCB1E",
"F c #FFD015",
"G c #FFD018",
"H c #FFD11A",
"J c #FFD11C",
"K c #FFCF20",
"L c #FFD220",
"P c #FFD323",
/* pixels */
"                                 rrrr4666                                 ",
"                              0rrr00rrrrrrt0                              ",
"                            rrrr62;;$$::46rr00                            ",
"                           rrr4=O==OuuO====4rrr                           ",
"                          rr4======@ii@=====;6rr                          ",
"                         rrr=======.ii.=======6r0                         ",
"                        rrr;=======yiiy=======:0rr                        ",
"                      06rr=========iiii========:rrrr                      ",
"                rrrrrrrr0,========*iiii*========,000rrrrrr                ",
"              rrrr4111,;:=========#iiii#========-;,;4,,rrr00              ",
"            r0rr4=================%iiii%============O====1r00r            ",
"            002O==================diiiid==================O2rr            ",
"           00,====================siiiis====================,t0           ",
"          004=====================siiiis=====================4r0          ",
"         rt4===================O#diiiiiid#O===================60r         ",
"         rr===================#aiiiiiiiiiia#===================rr         ",
"        0r4================;=siiiiiiiiiiiiiisO=================4rr        ",
"        r0O================*aiiiiiiiiiiiiiiiiao================Orr        ",
"        04================OuiiiiiiiiiiiiiiiiiiuO================4r        ",
"        02===============OaiiiiiiiiiiiiiiiiiiiiaO===============1r        ",
"       rr:O==============%iiiiiiiiiiiiiiiiiiiiii%===============,0r       ",
"       rr:==============+uiiiiiiiiiiiiiiiiiiiiiiu+===============r6       ",
"       rr:==============siiiiiiiiiiiiiiiiiiiiiiiis==============,rr       ",
"       6r,=============%iiiiiiiiiiiiiiiiiiiiiiiiii%==============rr       ",
"       rr============+diiiiiiiiplSPPPPPPSlfiiiiiiiid+============rr       ",
"     0rr,===========#uiiiiiiipAPPPPLPPPPPPPApiiiiiiiu#===========,rrr     ",
"    6rr,==========OsiiiiiiiilPPPFMvvvvvvMCPPPliiiiiiiisO===========6r6    ",
"   rrr===========OyiiiiiiiilPPCnvvvvvvvvccnCPPliiiiiiiiyO===========rr6   ",
"  rrr===========OyiiiiiiiijPPBccvvvvvvvvccccVPLjiiiiiiiiyO===========rrr  ",
"  r0,===========diiiiiiiipKPCcccvvvvvvvvcccccCPLpiiiiiiii.===========,rr  ",
" rr6===========&iiiiiiiiixPJccccvvvvvvvvccccccJPxiiiiiiiii#O==========6r0 ",
" rr===========OuiiiiiiiigPPnccccvvvvvvvvccccccnPPgiiiiiiiiuO==========,rr ",
" rr===========#iiiiiiiiizPFvvvvvvvvvvvvvvvvvvvvFLziiiiiiiii#===========6r ",
"rr,===========yiiiiiiiiiDPnvvvvvvvvvvvvvvvvvvvvnPDiiiiiiiiiy===========2rr",
"60-=====o@%%aiiiiiiiiiiiPPvvvvvvvvvvvvvvvvvvvvvvPPpiiiiiiiiiia%%@o======06",
"rr=O#XyiiiiiiiiiiiiiiiijPGvvvvvvvvvvvvvvvvvvvvvvGLjiiiiiiiiiiiiiiiiyX#O=rr",
"rt.iiiiiiiiiiiiiiiiiiiigPGvvvvvvvvvvvvvvvvvvvvvvJPhiiiiiiiiiiiiiiiiiiii.tr",
"rr%iiiiiiiiiiiiiiiiiiiijPGvvvvvvvvvvvvvvvvvvvvvvGPhiiiiiiiiiiiiiiiiiiii%rr",
"rr=+&siiiiiiiiiiiiiiiiihPHvvvvvvvvvvvvvvvvvvvvvvJPhiiiiiiiiiiiiiiiiis#+=rr",
"6r,====o@%dsaiiiiiiiiiipPPvvvvvvvvvvvvvvvvvvvvvvPPiiiiiiiiiiiasd%@o==O=,r6",
"0r,===========yiiiiiiiiiSPMvvvvvvvvvvvvvvvvvvvvnPSiiiiiiiiiy===========,rr",
" r4===========&iiiiiiiiizPFvvvvvvvvvvvvvvvvvvvvVPziiiiiiiii&===========6r ",
" rr===========OiiiiiiiiihPLvvvvvvvvvvvvvvvvvvvvLPjiiiiiiiiiO===========0r ",
" rr4===========%iiiiiiiiiAPGvvvvvvvvvvvvvvvvvvGPAiiiiiiiii%===========20r ",
"  rr:==========OyiiiiiiiifPPBvvvvvvvvvvvvvvvvMPPfiiiiiiiiyO===========rr  ",
"  6rr===========+uiiiiiiiizPLBvvvvvvvvvvvvvvFPPliiiiiiiiu+===========rrr  ",
"   rr4===========ouiiiiiiiixLPFnvvvvvvvvvvvFPLxiiiiiiiiuo==========Orrr   ",
"    rrr===========+yiiiiiiiikKPLNvvvvvvvvNPPJkiiiiiiiiy+===========4rr    ",
"     rrr===========OXiiiiiiiigSLPPJJGJJJPPPSgiiiiiiiiXO===========rrr     ",
"      6rr===========O$aiiiiiiiijAKPPPPLPLxjiiiiiiiia$============rr6      ",
"       6r:============O.iiiiiiiiiighhhhgiiiiiiiiiidO============:rr       ",
"       rr;=============OyiiiiiiiiiiiiiiiiiiiiiiiiaO=============;r6       ",
"       rr:==============@iiiiiiiiiiiiiiiiiiiiiiii*==============:rr       ",
"       rr:===============XiiiiiiiiiiiiiiiiiiiiiiX===============:rr       ",
"        r4================diiiiiiiiiiiiiiiiiiiid================1r        ",
"        r4================OyiiiiiiiiiiiiiiiiiiaO================4r        ",
"        rr=================OuiiiiiiiiiiiiiiiiuO=================rr        ",
"        6r,=================OyiiiiiiiiiiiiiiyO=================,rr        ",
"         rr===================%iiiiiiiiiiii%===================rr         ",
"         rr,===================+XyiiiiiiyX+===================,rr         ",
"          rr,=====================yiiiiy=====================,rr          ",
"           rr,====================siiiis====================2rr           ",
"           rrr4===================.iiii.==================O2rrr           ",
"             rrr,=================%iiii%=================;rrr             ",
"              rrrr4:=-,===========#iiii#===========,;,,4rrrr              ",
"                6rrrrrrrr=========*iiii*=========rrrrrrrrr                ",
"                   rrr6rrrO========iiii=========r06rrr6                   ",
"                        rr4========yiiy========6r6                        ",
"                         6r6;======.iid======;rrr                         ",
"                          rr0;=====#ip#=====;0rr                          ",
"                           rrr4====+ii+====4rr6                           ",
"                            00004;==%%==;400r0                            ",
"                              rrrrrrrrrrrrrr                              ",
"                                66rrrrrr6r                                "
};
