/* XPM */
static char *result[] = {
/* columns rows colors chars-per-pixel */
"32 32 97 2 ",
"   c #F7523F",
".  c #F7533F",
"X  c #F7563D",
"o  c #F7573D",
"O  c #F7553E",
"+  c #F7543F",
"@  c #F7593C",
"#  c #F7583D",
"$  c #F85A3B",
"%  c #F85E39",
"&  c #F85F39",
"*  c #F85C3A",
"=  c #F9732E",
"-  c #F9752D",
";  c #FA782C",
":  c #F86137",
">  c #F86237",
",  c #F86734",
"<  c #F86933",
"1  c #F96C32",
"2  c #F86138",
"3  c #F75040",
"4  c #F75140",
"5  c #F75041",
"6  c #F75240",
"7  c #F75241",
"8  c #F85241",
"9  c #F85342",
"0  c #F85343",
"q  c #F95343",
"w  c #F95443",
"e  c #F95444",
"r  c #F95544",
"t  c #F95545",
"y  c #FA5545",
"u  c #FA5645",
"i  c #FA5646",
"p  c #FA5746",
"a  c #FB5747",
"s  c #FB5847",
"d  c #FB5848",
"f  c #FB5948",
"g  c #FC5948",
"h  c #FC5949",
"j  c #FC5A49",
"k  c #FC5A4A",
"l  c #FD5B4A",
"z  c #FC5B4B",
"x  c #FD5B4B",
"c  c #FD5C4C",
"v  c #FD5D4C",
"b  c #FC5D4D",
"n  c #FD5D4D",
"m  c #FE5C4C",
"M  c #FE5D4C",
"N  c #FE5D4D",
"B  c #FE5E4D",
"V  c #FD5D4E",
"C  c #FD5E4E",
"Z  c #FD5F4F",
"A  c #FE5E4E",
"S  c #FF5E4E",
"D  c #FE5F4E",
"F  c #FE5E4F",
"G  c #FE5F4F",
"H  c #FF5F4F",
"J  c #FC9F17",
"K  c #FB961C",
"L  c #FC9C19",
"P  c #FEBF07",
"I  c #FDB20D",
"U  c #FDB30D",
"Y  c #FDB50C",
"T  c #FEBB09",
"R  c #FEB90A",
"E  c #FCA514",
"W  c #FDAB11",
"Q  c #FA8425",
"!  c #FA8624",
"~  c #FB8823",
"^  c #FB8B22",
"/  c #FB8E20",
"(  c #FA8028",
")  c #FFC603",
"_  c #FEC205",
"`  c #FEC006",
"'  c #FEC404",
"]  c #FFC504",
"[  c #FFC901",
"{  c #FFCB00",
"}  c #FFCA01",
"|  c #FFC802",
" . c #FFC902",
".. c #FFCC00",
"X. c #FFCD00",
"o. c #FFCE00",
"O. c None",
/* pixels */
"O.O.O.O.O.O.O.O.O.O.O.O.B Z H H H H F O.O.O.O.O.O.O.O.O.O.O.O.O.",
"O.O.O.O.O.O.O.O.O.O.O.H A l g f f h c S A O.O.O.O.O.O.O.O.O.O.O.",
"O.O.O.O.O.O.O.O.A S S x r 8 4 4 4 4 9 s B H H A O.O.O.O.O.O.O.O.",
"O.O.O.O.O.O.H A M x d 9 4 4 4 4 4 4 4 4 y h x N A C O.O.O.O.O.O.",
"O.O.O.O.O.A c i 8 4 4 4 4 4 4 4 4 4 4 4 4 4 4 9 f N A O.O.O.O.O.",
"O.O.O.O.H c 0 4 4 4 4 4 4 4 4 4 4 4 4 4 4 4 4 4 4 u N A O.O.O.O.",
"O.O.O.H N r 4 4 4 4 4 4 4 4 4 4 4 4 4 4 4 4 4 4 4 4 p A O.O.O.O.",
"O.O.O.S a 4 4 4 4 4 4 4 4 4 4 4 4 4 4 4 4 4 4 4 4 4 7 k H O.O.O.",
"O.O.A N 9 4 4 4 4 4 4 4 4 4 4 4 4 4 4 4 4 4 4 4 4 4 4 p A O.O.O.",
"O.O.A x 4 4 4 4 4 4 4 4 4 4 6     4 4 4 4 4 4 4 4 4 4 w N O.O.O.",
"O.O.A d 4 4 4 4 4 4 4 3 O 1 ~ ^ ^ ( :   4 4 4 4 4 4 4 7 m D O.O.",
"O.A c 9 4 4 4 4 4 4 3 o / _ } } } [ Y = 4 4 4 4 4 4 4 4 u A n O.",
"O.A u 4 4 4 4 4 4 4 . Q ' X.........o.U , 5 4 4 4 4 4 4 8 k A O.",
"A x 9 4 4 4 4 4 4 4 > R X.............X.K O 4 4 4 4 4 4 4 y A O.",
"H h 4 4 4 4 4 4 4 4 (  .................T % 3 4 4 4 4 4 4 w M N ",
"H f 4 4 4 4 4 4 4   ^ } ................) 2 3 4 4 4 4 4 4 9 c A ",
"H f 4 4 4 4 4 4 4 6 Q [ ................` & 3 4 4 4 4 4 4 q m A ",
"A k 7 4 4 4 4 4 4 4 < ] ..............X.E @ 4 4 4 4 4 4 4 r A O.",
"N N r 4 4 4 4 4 4 4 o L { X.........o.' ; 4 4 4 4 4 4 4 4 s G O.",
"O.H k 8 4 4 4 4 4 4 3 > J | X.....X.P Q X 3 4 4 4 4 4 4 w N A O.",
"O.b A p 4 4 4 4 4 4 4 3 * ! W I I J - + 3 4 4 4 4 4 4 4 k H O.O.",
"O.O.D l 4 4 4 4 4 4 4 4 5 . $ * * # 4 4 4 4 4 4 4 4 4 w N C O.O.",
"O.O.A v 7 4 4 4 4 4 4 4 4 4 3 3 3 4 4 4 4 4 4 4 4 4 4 u A O.O.O.",
"O.O.O.A t 4 4 4 4 4 4 4 4 4 4 4 4 4 4 4 4 4 4 4 4 4 4 h D O.O.O.",
"O.O.O.H x 8 4 4 4 4 4 4 4 4 4 4 4 4 4 4 4 4 4 4 4 4 r N A O.O.O.",
"O.O.O.O.A s 7 4 4 4 4 4 4 4 4 4 4 4 4 4 4 4 4 4 4 w x A O.O.O.O.",
"O.O.O.O.V S h 9 4 4 4 4 4 4 4 4 4 4 4 4 4 4 4 7 u c D O.O.O.O.O.",
"O.O.O.O.O.n G c d u w 8 4 4 4 4 4 4 4 4 7 r p k A A O.O.O.O.O.O.",
"O.O.O.O.O.O.O.C S A N j w 4 4 4 4 4 4 r z A A D n O.O.O.O.O.O.O.",
"O.O.O.O.O.O.O.O.O.O.A H M p r e e r d N S O.O.O.O.O.O.O.O.O.O.O.",
"O.O.O.O.O.O.O.O.O.O.O.O.F H A N N S H N O.O.O.O.O.O.O.O.O.O.O.O.",
"O.O.O.O.O.O.O.O.O.O.O.O.O.O.O.O.O.O.O.O.O.O.O.O.O.O.O.O.O.O.O.O."
};
