/* XPM */
static char *result[] = {
/* columns rows colors chars-per-pixel */
"32 32 134 2 ",
"   c #5C6278",
".  c #5B6177",
"X  c #596075",
"o  c #595F75",
"O  c #5A6075",
"+  c #63687E",
"@  c #71758C",
"#  c #757992",
"$  c #70738E",
"%  c #6D708C",
"&  c #6D718D",
"*  c #9D9DB7",
"=  c #ACAAC9",
"-  c #9A98BD",
";  c #908EB7",
":  c #908FB7",
">  c #BBB7DB",
",  c #9F9DC4",
"<  c #918FB7",
"1  c #918FB8",
"2  c #7E7F9F",
"3  c #6C6F8B",
"4  c #6C708B",
"5  c #5A6076",
"6  c #5E627C",
"7  c #616580",
"8  c #626681",
"9  c #60657E",
"0  c #5C6279",
"q  c #5A6176",
"w  c #5E637C",
"e  c #6A6B8E",
"r  c #717098",
"t  c #727199",
"y  c #6C6D90",
"u  c #61657F",
"i  c #5B6176",
"p  c #6C708C",
"a  c #676C86",
"s  c #8285A7",
"d  c #8C8BB5",
"f  c #817EAB",
"g  c #636782",
"h  c #5B6277",
"j  c #5C6277",
"k  c #6B6F8B",
"l  c #737A8F",
"z  c #A5AEC5",
"x  c #AFB4D2",
"c  c #8C8BB4",
"v  c #626682",
"b  c #8F8DB6",
"n  c #6B6E8A",
"m  c #7A8195",
"M  c #BBC6D6",
"N  c #C7CFE6",
"B  c #9A9BC1",
"V  c #78769F",
"C  c #646884",
"Z  c #6A6E8A",
"A  c #7C8396",
"S  c #C3CBD8",
"D  c #D4DAEE",
"F  c #ACACD1",
"G  c #8785AE",
"H  c #696D89",
"J  c #7D8496",
"K  c #C6CED9",
"L  c #DADFF2",
"P  c #B5B4DA",
"I  c #C6CDD9",
"U  c #DADFF1",
"Y  c #B5B4D9",
"T  c #8E8DB6",
"R  c #C5CDD9",
"E  c #D9DEF1",
"W  c #B5B3D9",
"Q  c #8E8CB5",
"!  c #C7CFDA",
"~  c #DBE0F2",
"^  c #C7CFDB",
"/  c #DBE1F3",
"(  c #767C90",
")  c #B1B7C9",
"_  c #C5C8E1",
"`  c #AEACD4",
"'  c #686D85",
"]  c #8587A7",
"[  c #9998BF",
"{  c #A09CC9",
"}  c #606480",
"|  c #6F6E96",
" . c #837FAE",
".. c #9894C3",
"X. c #6D718C",
"o. c #706F96",
"O. c #8480AE",
"+. c #70748F",
"@. c #9A98BE",
"#. c #9997BD",
"$. c #C8D0DB",
"%. c #DCE2F3",
"&. c #B6B5DB",
"*. c #767A93",
"=. c #ADABCA",
"-. c #747790",
";. c #C7D0DA",
":. c #B7B5DB",
">. c #8F8DB7",
",. c #6C6F8C",
"<. c #71768D",
"1. c #9E9EB8",
"2. c #9D9DB8",
"3. c #6F738B",
"4. c #787E93",
"5. c #B8BDD0",
"6. c #C7CAE3",
"7. c #A3A2C6",
"8. c #8181A5",
"9. c #676B86",
"0. c #63687F",
"q. c #70748B",
"w. c #61677D",
"e. c #71758F",
"r. c #9D9EC0",
"t. c #A2A2C6",
"y. c #7E809F",
"u. c #676B85",
"i. c #5F647C",
"p. c #585F74",
"a. c #6D708D",
"s. c #908DB7",
"d. c #595F74",
"f. c white",
/* pixels */
"  . X o O O O O O O O O O O O O O O O O O O O O O O O O o X .   ",
". + @ # $ % % & & & & & & & & & & & & & & & & & & % % $ # @ + . ",
"X @ * = - ; ; : : : : : : : : : : : : : : : : : : ; ; - = * @ X ",
"o # = > , ; ; < < 1 1 1 1 1 1 1 1 1 1 1 1 1 1 < < ; ; , > = # o ",
"O $ - , 2 3 4 % % % & & & & & & & & & & & & % % % 4 3 2 , - $ O ",
"O % ; ; 3 5 6 7 8 9 0 q q q q q q q q q q 0 9 8 7 6 5 3 ; ; % O ",
"O % ; ; 4 w e r t y u q i . . . . . . i q u y t r e w 4 ; ; % O ",
"O & : : p a s d f t g h j             j h g t f d s a p : : & O ",
"O & : ; k l z x c r v h j             j h v r c x z l k ; : & O ",
"O & : b n m M N B V C . h             h . C V B N M m n b : & O ",
"O & : b Z A S D F G H i .             . i H G F D S A Z b : & O ",
"O & : b Z J K L P b 3 q .             . q 3 b P L K J Z b : & O ",
"O & : b Z J I U Y T 3 q .             . q 3 T Y U I J Z b : & O ",
"O & : b Z J R E W Q k q .             . q k Q W E R J Z b : & O ",
"O & : b Z J R E W Q k q .             . q k Q W E R J Z b : & O ",
"O & : b Z J R E W Q k q .             . q k Q W E R J Z b : & O ",
"O & : b Z J R E W Q k q .             . q k Q W E R J Z b : & O ",
"O & : b Z J ! ~ Y Q k q .             . q k Q Y ~ ! J Z b : & O ",
"O & : b Z J ^ / Y Q k q .             . q k Q Y / ^ J Z b : & O ",
"O & : ; n ( ) _ ` b 3 q .             . q 3 b ` _ ) ( n ; : & O ",
"O & : : 4 ' ] [ { ; % q .             . q % ; { [ ] ' 4 : : & O ",
"O & : 1 % } |  ...< X.q .             . q X.< .. .| } % 1 : & O ",
"O & : 1 % 7 o.O...< X.q .             . q X.< ..O.o.7 % 1 : & O ",
"O & : 1 % 7 o.O...< X.q .             . q X.< ..O.o.7 % 1 : & O ",
"O & : 1 % } |  ...< X.q .             . q X.< .. .| } % 1 : & O ",
"O % ; ; 4 ' ] [ { ; % q .             . q % ; { [ ] ' 4 ; ; % O ",
"O % ; b n ( ) _ ` b 3 q .             . q 3 b ` _ ) ( n b ; % O ",
"O +.@.#.X.J $.%.&.b 3 q .             . q 3 b &.%.$.J X.#.@.+.O ",
"o *.=.= -.J ;.%.:.>.,.q .             . q ,.>.:.%.;.J -.= =.*.o ",
"X <.1.2.3.4.5.6.7.8.9.. .             . . 9.8.7.6.5.4.3.2.1.<.X ",
". 0.@ q.w.e.r.t.y.u.i.                    i.u.y.t.r.e.w.q.@ 0.. ",
"  . X p.O a.s.b k d.q                     q d.k b s.a.O p.X .   "
};
