/* XPM */
static char *result[] = {
/* columns rows colors chars-per-pixel */
"21 32 125 2 ",
"   c #502D03",
".  c #512E04",
"X  c #523007",
"o  c #533108",
"O  c #5A3912",
"+  c #654824",
"@  c #715636",
"#  c #73593B",
"$  c #755C3E",
"%  c #775D40",
"&  c #7A6144",
"*  c #7B6346",
"=  c #7F674C",
"-  c #856F56",
";  c #857057",
":  c #8A765E",
">  c #8C7861",
",  c #95836F",
"<  c #9A8A78",
"1  c #9C8D7C",
"2  c #A59889",
"3  c #AEA397",
"4  c #B0A69B",
"5  c #B3A99F",
"6  c #B7AFA6",
"7  c #B1B1B1",
"8  c #B8B7B7",
"9  c gray72",
"0  c #BCBBBB",
"q  c #BDBCBC",
"w  c gray74",
"e  c #BEBDBD",
"r  c #C0B9B3",
"t  c #C4BFBB",
"y  c #C5C0BC",
"u  c #C6C1BD",
"i  c #DCBFDB",
"p  c #DFB9DE",
"a  c #DDBDDC",
"s  c #EE9DEE",
"d  c #EE9EEE",
"f  c #EE9FEE",
"g  c #E7AAE7",
"h  c #EEA0EE",
"j  c #EFAEEF",
"k  c #E4B0E3",
"l  c #EFB8EF",
"z  c #F0A8F0",
"x  c #F1AEF1",
"c  c gray76",
"v  c #C3C2C2",
"b  c #C3C3C3",
"n  c #C4C3C3",
"m  c gray77",
"M  c #C5C4C4",
"N  c #C6C6C6",
"B  c #C7C6C6",
"V  c gray78",
"C  c #C8C6C7",
"Z  c #C8C7C7",
"A  c #CCC8C6",
"S  c #C9C8C8",
"D  c #CAC8C8",
"F  c #CBCACA",
"G  c #CECAC8",
"H  c #CCCACA",
"J  c #CECCCA",
"K  c #CFCCCA",
"L  c #CFCCCB",
"P  c #CDCDCD",
"I  c #CECDCD",
"U  c #CFCDCD",
"Y  c #CFCECE",
"T  c #D0CDCC",
"R  c #D0CCCD",
"E  c #D0CDCD",
"W  c #D0CECD",
"Q  c #D0CECE",
"!  c #D1CECE",
"~  c #D1CFCF",
"^  c #D2D1CF",
"/  c #D4CCD3",
"(  c #D6C9D4",
")  c #D5CCD4",
"_  c #D0D0D0",
"`  c #D2D0D0",
"'  c #D2D1D0",
"]  c #D2D0D1",
"[  c #D3D1D1",
"{  c #D3D1D2",
"}  c #D3D2D2",
"|  c #D4D2D3",
" . c #D4D3D3",
".. c gray83",
"X. c #D5D5D5",
"o. c gray84",
"O. c #DBD9D9",
"+. c gray86",
"@. c #DDDCDC",
"#. c #DDDDDD",
"$. c #DEDDDD",
"%. c #DFDDDD",
"&. c #DFDEDE",
"*. c #DFDFDF",
"=. c #F9DCF9",
"-. c #E3E2E2",
";. c #E6E5E5",
":. c #E7E6E6",
">. c #E8E7E7",
",. c #EAE3EA",
"<. c #EAE7E9",
"1. c #FAE3FA",
"2. c #FBE7FB",
"3. c #FCEEFC",
"4. c #F3F3F3",
"5. c #F4F4F4",
"6. c gray97",
"7. c #FDF2FD",
"8. c #F9F9F9",
"9. c #FBFAFA",
"0. c #FBFBFB",
"q. c gray99",
"w. c #FDFDFD",
"e. c white",
"r. c None",
/* pixels */
"r.r.w w r.r.r.r.r.r.r.r.r.r.r.r.w w r.r.r.",
"r.r.w w w r.r.r.r.r.r.r.r.r.r.w w w w r.r.",
"r.w w w w w r.r.r.r.r.r.r.r.r.w w w w r.r.",
"r.w w w w w w r.r.r.r.r.r.r.w w w w w r.r.",
"r.w w w w w w r.r.r.r.r.r.w w w w w w r.r.",
"r.w w w w w w w r.r.r.r.r.w w w w w w r.r.",
"r.w w w w w w w r.r.r.r.w w w w w w w r.r.",
"r.w w w w w w w w r.r.r.w w w w w w w r.r.",
"r.r.w w w w w w w r.r.r.w w w w w w w r.r.",
"r.r.w w w w w w w r.r.r.w w w w w w w r.r.",
"r.r.v v v v v v v B r.m v v v v v v n r.r.",
"` ` ~ ~ ~ ~ ~ ~ ~ ` ` ` ~ ~ ~ ~ ~ ~ ` ` ` ",
"` ` ` ` ` ` ` ` ` ` ` ` ` ` ` ` ` ` ` ` ` ",
"` ` ` ` ` ` ` ` ` ` ` ` ` ` ` ` ` ` ` ` ` ",
"` ` ` ` ` ` ` ` ` ` ` ` ` ` ` ` ` ` ` ` ` ",
"` ` ` ` ` ` ` ` ` ` ` ` ` ` ` ` ` ` ` ` ` ",
"` ` ` ] ~ L [ ` ` ` ` ` ` ` [ T W [ ` ` ` ",
"` ` ` J , % 4 [ ` ` ` ` ` { r = ; u [ ` ` ",
"` ` | 5 O   # A ' ' ' ^ ` ` > . X < | ` ` ",
"` `  .2 o . + y ) i p a ( E *     : [ ` ` ",
"` ` [ t - @ 1 R k f d f g / 3 $ & 6 { ` ` ",
"` ` ` [ ! G @.<.l s f s j ,.$.K L { ` ` ` ",
"` ` ~ S C  .5.e.2.x h z =.e.4.} Z D ~ ` ` ",
"` ` U q 0 c _ 0.e.7.1.3.e.8.P b 0 e Y ` ` ",
"` ` ` Q I ..o.q.e.e.e.e.e.0...X.U ~ ` ` ` ",
"` ` ` Z 8 V #.w.e.e.e.e.e.q.+.N 9 S ` ` ` ",
"` ` ` I H &.9.e.e.6.*.6.e.e.9.%.F U ` ` ` ",
"` ` ` ` ` ` O.>.-.m 7 V ;.:.O.` ` ` ` ` ` ",
"` ` ` ` ` ` ` ~ Q Z M H ~ ~ ` ` ` ` ` ` ` ",
"` ` ` ` ` ` ` ` ` ` [ ` ` ` ` ` ` ` ` ` ` ",
"` ` ` ` ` ` ` ` ` ` ` ` ` ` ` ` ` ` ` ` ` ",
"` ` ` ` ` ` ` ` ` ` ` ` ` ` ` ` ` ` ` ` ` "
};
