/* XPM */
static char *result[] = {
/* columns rows colors chars-per-pixel */
"32 32 184 2 ",
"   c #4F2900",
".  c #502A00",
"X  c #512C01",
"o  c #522D02",
"O  c #5A360A",
"+  c #65461F",
"@  c #725533",
"#  c #745838",
"$  c #765C3C",
"%  c #785D3E",
"&  c #7B6142",
"*  c #7C6344",
"=  c #80674B",
"-  c #867055",
";  c #867056",
":  c #8B775E",
">  c #8D7961",
",  c #968470",
"<  c #9B8B79",
"1  c #9D8E7D",
"2  c #A6998A",
"3  c #AFA498",
"4  c #B1A79C",
"5  c #B4AAA0",
"6  c #B8B0A7",
"7  c #B2B2B2",
"8  c #B9B8B8",
"9  c #B9B9B9",
"0  c #BDBCBC",
"q  c #BEBDBD",
"w  c gray",
"e  c #BFBEBE",
"r  c #BFBFBE",
"t  c gray75",
"y  c #C1BAB4",
"u  c #C0BFBE",
"i  c #C1C0BF",
"p  c #C2C0BF",
"a  c #C3C1BF",
"s  c #C5C0BC",
"d  c #C6C1BD",
"f  c #C4C1BF",
"g  c #C7C2BE",
"h  c #DEBEDD",
"j  c #E0BADF",
"k  c #EE9EEE",
"l  c #EE9FEE",
"z  c #EEA0EE",
"x  c #EEA1EE",
"c  c #E8ABE8",
"v  c #EFAFEF",
"b  c #E5B1E4",
"n  c #EFB9EF",
"m  c #F0A9F0",
"M  c #F1AFF1",
"N  c #C3C3C3",
"B  c #C4C1C0",
"V  c #C6C2C0",
"C  c #C4C3C3",
"Z  c #C6C4C3",
"A  c gray77",
"S  c #C5C5C5",
"D  c #C6C5C5",
"F  c gray78",
"G  c #C9C4C1",
"H  c #CAC5C1",
"J  c #CEC7C2",
"K  c #CFC7C2",
"L  c #CFC8C3",
"P  c #CEC8C5",
"I  c #CDC9C7",
"U  c #C9C7C8",
"Y  c #C8C8C8",
"T  c #C9C8C8",
"R  c #CAC9C9",
"E  c #CBC9C9",
"W  c #CFCBC9",
"Q  c #CCCBCB",
"!  c #CDCBCB",
"~  c #CFCDCB",
"^  c #CECECE",
"/  c #CFCECE",
"(  c #D1C8C3",
")  c #D1C9C3",
"_  c #D2C9C3",
"`  c #D2C9C4",
"'  c #D3CAC4",
"]  c #D6CBC4",
"[  c #D2CCC7",
"{  c #D7CCC5",
"}  c #D9CDC5",
"|  c #DDCFC6",
" . c #D0CDCB",
".. c #D0CDCC",
"X. c #D1CECD",
"o. c #D1CDCE",
"O. c #D0CECE",
"+. c #D1CECE",
"@. c #D1CFCE",
"#. c #D0CFCF",
"$. c #D1CFCF",
"%. c #D2CFCF",
"&. c #DED0C7",
"*. c #DFD1C7",
"=. c #DFD3CB",
"-. c #D7CAD5",
";. c #D5CDD4",
":. c #D6CDD5",
">. c #DDC0DC",
",. c gray82",
"<. c #D2D0D0",
"1. c #D3D1D1",
"2. c #D3D2D0",
"3. c #D3D2D1",
"4. c #D3D1D2",
"5. c #D4D1D0",
"6. c #D4D1D1",
"7. c #D4D2D1",
"8. c #D4D2D2",
"9. c #D4D2D3",
"0. c #D4D3D3",
"q. c #D5D3D4",
"w. c #D5D4D4",
"e. c #D5D5D5",
"r. c gray84",
"t. c #D7D7D7",
"y. c #DAD3D0",
"u. c #DAD4D0",
"i. c #DCD4D0",
"p. c #DCDADA",
"a. c gainsboro",
"s. c #DEDDDD",
"d. c gray87",
"f. c #DFDEDE",
"g. c #E0D1C7",
"h. c #E2D2C8",
"j. c #E5D3C8",
"k. c #E6D4C8",
"l. c #E7D4C9",
"z. c #E7D7CD",
"x. c #E8D5C9",
"c. c #ECD7C9",
"v. c #ECD7CA",
"b. c #EDD7CA",
"n. c #EFDACD",
"m. c #F0D9CA",
"M. c #F0D9CB",
"N. c #F3DBCC",
"B. c #F1DCCF",
"V. c #F4DCCC",
"C. c #F6DDCC",
"Z. c #F7DDCC",
"A. c #F7DECE",
"S. c #F7DFCF",
"D. c #F8DECD",
"F. c #F9DECD",
"G. c #FADFCD",
"H. c #FADFCE",
"J. c #FBDFCE",
"K. c #E0DEDE",
"L. c #E0DFDF",
"P. c #FBE0CE",
"I. c #FCE0CE",
"U. c #F9DDF9",
"Y. c gray88",
"T. c #E4E3E3",
"R. c #E7E6E6",
"E. c #E8E7E7",
"W. c #EBE4EB",
"Q. c #E9E8E8",
"!. c #EBE8EA",
"~. c #FAE4FA",
"^. c #FBE8FB",
"/. c #FCEEFC",
"(. c #F3F3F3",
"). c #F4F4F4",
"_. c gray97",
"`. c #FDF2FD",
"'. c #F9F9F9",
"]. c #FBFAFA",
"[. c #FBFBFB",
"{. c gray99",
"}. c #FDFDFD",
"|. c white",
/* pixels */
"I.I.I.I.I.I.I.Z.` a | G.I.I.I.I.I.I.I.I.I.V._ p &.I.I.I.I.I.I.I.",
"I.I.I.I.I.I.I.k.r w u g.I.I.I.I.I.I.I.I.D.' w w V N.I.I.I.I.I.I.",
"I.I.I.I.I.I.I.} w w w a c.I.I.I.I.I.I.I.| w w w r x.I.I.I.I.I.I.",
"I.I.I.I.I.I.P.( w w w w K D.I.I.I.I.I.M.f w w w w h.I.I.I.I.I.I.",
"I.I.I.I.I.I.H.L w w w w e j.I.I.I.I.J.{ w w w w w *.I.I.I.I.I.I.",
"I.I.I.I.I.I.H.L w w w w w J F.I.I.I.m.B w w w w w *.I.I.I.I.I.I.",
"I.I.I.I.I.I.P.) w w w w w i v.I.I.I.| w w w w w w h.I.I.I.I.I.I.",
"I.I.I.I.I.I.I.] w w w w w w } I.I.Z.H w w w w w t l.I.I.I.I.I.I.",
"I.I.I.I.I.I.I.| w w w w w w G C.I.c.i w w w w w i b.I.I.I.I.I.I.",
"I.I.I.I.I.I.I.k.t w w w w w i c.I.| w w w w w w V V.I.I.I.I.I.I.",
"I.I.I.I.I.I.S.z.Z C C C C C C =.B.[ C C C C C C P n.A.I.I.I.I.I.",
"I.I.I.I.I.I.y.6.<.<.<.<.<.<.<.7.6.1.<.<.<.<.<.<.1.5.u.I.I.I.I.I.",
"I.I.I.I.I.I.1.1.1.1.1.1.1.1.1.1.1.1.1.1.1.1.1.1.1.1.1.I.I.I.I.I.",
"I.I.I.I.I.I.1.1.1.1.1.1.1.1.1.1.1.1.1.1.1.1.1.1.1.1.1.I.I.I.I.I.",
"I.I.I.I.I.I.1.1.1.1.1.1.1.1.1.1.1.1.1.1.1.1.1.1.1.1.1.I.I.I.I.I.",
"I.I.I.I.I.I.1.1.1.1.1.1.1.1.1.1.1.1.1.1.1.1.1.1.1.1.1.I.I.I.I.I.",
"I.I.I.I.I.I.1.1.1.4.<...8.1.1.1.1.1.1.1.8.X.@.8.1.1.1.I.I.I.I.I.",
"I.I.I.I.I.I.1.1.1.~ , % 4 8.1.1.1.1.1.9.y = ; g 8.1.1.I.I.I.I.I.",
"I.I.I.I.I.I.1.1.q.5 O   # I 3.3.3.2.1.1.> . X < q.1.1.I.I.I.I.I.",
"I.I.I.I.I.I.1.1.w.2 o . + d :.>.j h -.+.*     : 8.1.1.I.I.I.I.I.",
"I.I.I.I.I.I.1.1.8.s - @ 1 o.b z l z c ;.3 $ & 6 9.1.1.I.I.I.I.I.",
"I.I.I.I.I.I.1.1.1.8.%.W s.!.n k z k v W.f. ...9.1.1.1.I.I.I.I.I.",
"I.I.I.I.I.I.1.1.<.R U w.).|.^.M x m U.|.(.0.T E <.1.1.I.I.I.I.I.",
"I.I.I.I.I.I.1.1.O.q 0 N ,.[.|.`.~./.|.'.^ A 0 e #.1.1.I.I.I.I.I.",
"I.I.I.I.I.I.1.1.1.$./ e.t.{.|.|.|.|.|.[.e.r.O.<.1.1.1.I.I.I.I.I.",
"I.I.I.I.I.I.1.1.1.T 8 Y d.}.|.|.|.|.|.{.a.F 9 R 1.1.1.I.I.I.I.I.",
"I.I.I.I.I.I.1.1.1./ ! L.].|.|._.Y._.|.|.].K.Q O.1.1.1.I.I.I.I.I.",
"I.I.I.I.I.I.1.1.1.1.1.1.p.Q.T.S 7 Y R.E.p.1.1.1.1.1.1.I.I.I.I.I.",
"I.I.I.I.I.I.1.1.1.1.1.1.1.<.$.T D ! <.<.1.1.1.1.1.1.1.I.I.I.I.I.",
"I.I.I.I.I.I.1.1.1.1.1.1.1.1.1.1.8.1.1.1.1.1.1.1.1.1.1.I.I.I.I.I.",
"I.I.I.I.I.I.1.1.1.1.1.1.1.1.1.1.1.1.1.1.1.1.1.1.1.1.1.I.I.I.I.I.",
"I.I.I.I.I.I.i.1.1.1.1.1.1.1.1.1.1.1.1.1.1.1.1.1.1.1.i.I.I.I.I.I."
};
